<?xml version="1.0" standalone="no"?>
<!DOCTYPE svg PUBLIC "-//W3C//DTD SVG 20010904//EN"
 "http://www.w3.org/TR/2001/REC-SVG-20010904/DTD/svg10.dtd">
<svg version="1.0" xmlns="http://www.w3.org/2000/svg"
 width="512.000000pt" height="512.000000pt" viewBox="0 0 512.000000 512.000000"
 preserveAspectRatio="xMidYMid meet">
<metadata>
Created by potrace 1.14, written by Peter Selinger 2001-2017
</metadata>
<g transform="translate(0.000000,512.000000) scale(0.100000,-0.100000)"
fill="#000000" stroke="none">
<path d="M1612 4483 c-25 -47 -31 -148 -18 -273 24 -215 53 -326 97 -366 21
-19 25 -40 8 -46 -7 -2 -7 -63 1 -208 17 -291 -1 -600 -46 -798 -21 -93 -18
-167 10 -242 37 -101 45 -121 71 -175 14 -27 37 -81 52 -119 16 -38 36 -73 46
-78 49 -23 121 -72 171 -115 22 -18 50 -33 62 -33 13 0 26 -4 29 -10 3 -5 17
-10 30 -10 13 0 28 -6 32 -14 14 -24 47 -34 96 -30 26 2 47 0 47 -5 0 -5 -27
-46 -61 -91 -33 -45 -86 -123 -117 -173 -66 -107 -139 -187 -169 -187 -27 0
-51 24 -58 58 -17 82 -42 155 -75 217 -66 124 -95 175 -101 175 -5 0 -53 -142
-64 -190 -10 -48 -35 -302 -35 -361 0 -92 -28 -238 -59 -305 -16 -33 -58 -107
-95 -163 -112 -173 -137 -235 -155 -386 -6 -49 -13 -108 -15 -130 -12 -99 -30
-177 -62 -274 -19 -57 -34 -113 -32 -125 l3 -21 1503 -3 c826 -1 1502 0 1502
2 0 2 -5 28 -10 57 -15 79 -31 227 -39 369 -6 105 -16 156 -60 320 -85 316
-113 392 -186 500 -55 81 -68 109 -90 195 -16 62 -29 149 -34 227 -8 116 -12
132 -44 196 -19 38 -52 93 -74 123 -50 68 -56 80 -83 158 -20 59 -20 66 -6 96
9 18 16 40 16 49 0 9 28 71 63 138 l62 122 -4 106 c-8 170 -3 355 10 402 6 23
15 102 19 173 4 84 14 155 28 200 11 39 25 88 30 110 6 22 25 81 42 130 45
130 64 249 64 405 1 156 -15 223 -65 265 -76 63 -231 0 -333 -136 -112 -150
-257 -305 -326 -349 -89 -57 -138 -65 -405 -64 -257 1 -281 4 -421 60 -117 46
-181 101 -308 264 -105 135 -277 298 -376 359 -43 26 -57 26 -68 4z m2251
-325 c7 -27 3 -32 -18 -25 -19 8 -20 47 -1 47 7 0 16 -10 19 -22z m-2213 -34
c0 -8 -4 -12 -10 -9 -5 3 -10 10 -10 16 0 5 5 9 10 9 6 0 10 -7 10 -16z m2101
-44 c8 0 26 6 41 14 26 14 26 13 25 -12 -1 -15 -8 -32 -16 -38 -10 -8 -11 -13
-3 -18 7 -4 12 -18 12 -32 0 -21 -3 -24 -25 -18 -20 5 -25 2 -25 -12 0 -9 7
-26 16 -35 15 -17 15 -21 0 -53 -23 -48 -20 -76 10 -107 26 -27 25 -49 -2 -49
-17 0 -19 -31 -3 -47 16 -16 -7 -53 -34 -54 -67 -4 -70 -6 -135 -88 l-19 -24
0 49 c0 27 4 55 10 62 7 9 4 12 -11 12 -12 0 -31 10 -44 23 -13 12 -33 29 -46
37 -20 13 -22 19 -13 42 5 14 18 29 28 32 10 3 28 28 41 56 13 27 29 50 37 50
7 0 11 7 9 18 -5 18 48 82 68 82 6 0 3 10 -6 24 -15 24 -15 25 12 28 23 3 27
7 25 33 -2 17 0 37 3 45 5 13 7 12 18 -2 7 -10 19 -18 27 -18z m-121 -100 c0
-5 -4 -10 -10 -10 -5 0 -10 5 -10 10 0 6 5 10 10 10 6 0 10 -4 10 -10z m-80
-80 c0 -5 -4 -10 -9 -10 -6 0 -13 5 -16 10 -3 6 1 10 9 10 9 0 16 -4 16 -10z
m-1760 -80 c0 -5 -4 -10 -10 -10 -5 0 -10 5 -10 10 0 6 5 10 10 10 6 0 10 -4
10 -10z m-32 -62 c4 -31 -9 -36 -32 -12 -24 23 -20 46 7 42 16 -2 23 -11 25
-30z m1721 -172 c10 -12 8 -17 -8 -25 -31 -17 -41 -13 -41 14 0 28 29 35 49
11z m101 -195 c0 -12 -20 -25 -27 -18 -7 7 6 27 18 27 5 0 9 -4 9 -9z m-1516
-233 c14 -23 0 -35 -25 -20 -26 17 -34 10 -54 -41 -14 -38 -14 -46 -1 -77 16
-39 51 -75 82 -84 27 -8 66 22 88 68 24 52 21 72 -11 71 -19 0 -29 6 -31 19
-3 16 1 18 27 14 27 -4 30 -2 25 14 -11 36 11 17 39 -32 26 -46 27 -54 16 -88
-28 -87 -95 -132 -169 -112 -72 19 -130 86 -130 150 0 95 104 181 144 118z
m991 1 c102 -28 138 -104 95 -202 -19 -42 -29 -52 -76 -74 -71 -32 -120 -32
-173 1 -55 35 -81 79 -81 139 0 55 20 91 64 115 62 34 105 39 171 21z m-1145
-14 c0 -8 -4 -15 -10 -15 -5 0 -10 7 -10 15 0 8 5 15 10 15 6 0 10 -7 10 -15z
m1316 -61 c9 -63 -9 -78 -28 -21 -16 48 -14 67 7 67 9 0 16 -17 21 -46z m-465
-125 c-6 -16 -10 -18 -10 -7 -1 22 12 55 16 42 2 -6 -1 -22 -6 -35z m800 -776
c0 -5 2 -55 3 -113 2 -79 -1 -119 -15 -160 -9 -30 -23 -75 -29 -98 -9 -34 -26
-58 -78 -105 -135 -126 -239 -233 -268 -277 -25 -38 -35 -45 -66 -48 -33 -3
-38 0 -77 57 -23 34 -59 107 -82 162 -22 56 -48 118 -59 138 l-18 36 5 -42 c5
-40 -14 -86 -52 -118 -6 -5 -26 -32 -44 -60 -19 -27 -44 -58 -57 -68 -24 -19
-24 -19 -5 -43 11 -14 25 -42 31 -62 7 -20 29 -84 50 -142 72 -201 135 -405
142 -465 12 -95 15 -116 31 -185 l15 -65 -56 -49 c-31 -28 -141 -132 -243
-233 -102 -101 -192 -183 -200 -183 -21 0 -79 38 -86 56 -3 9 0 20 7 24 7 4
11 13 8 20 -3 9 -9 8 -21 -5 -19 -19 -47 -14 -47 8 0 8 7 20 15 27 26 22 16
31 -16 15 -36 -19 -59 -7 -59 31 0 13 -5 24 -12 24 -6 0 -42 27 -79 60 -37 33
-71 60 -76 60 -4 1 -26 17 -48 36 l-39 35 2 72 c5 152 50 327 84 327 13 0 488
477 488 490 0 6 -3 10 -6 10 -18 0 -117 -91 -289 -267 -172 -175 -215 -212
-215 -184 0 5 28 35 62 68 147 138 181 173 175 179 -8 9 -61 -30 -130 -95 -31
-30 -60 -51 -63 -48 -8 8 83 192 158 319 32 54 60 109 64 123 3 14 10 25 15
25 5 0 12 1 17 3 4 1 9 -18 12 -42 5 -47 30 -71 30 -29 0 13 3 34 7 46 5 20
11 23 39 20 34 -4 44 4 23 18 -13 7 -48 84 -73 156 -16 49 -13 78 8 78 7 0 23
12 37 26 13 14 58 42 99 62 41 20 82 44 90 53 8 9 34 24 58 34 35 15 47 16 63
7 29 -18 36 -15 31 18 -4 29 -3 30 29 24 44 -8 39 -8 74 0 17 4 53 12 80 19
28 6 54 14 59 19 6 4 26 8 45 8 20 0 45 7 55 15 11 8 30 15 43 15 13 0 26 7
29 15 4 8 14 15 23 15 10 0 26 7 37 15 10 8 26 15 35 15 25 0 76 29 83 45 3 8
15 15 26 15 11 0 20 5 20 11 0 6 8 9 19 6 11 -2 25 3 35 14 16 19 45 26 47 12z
m-1111 -685 c0 -36 -20 -17 -49 46 -16 36 -32 80 -36 98 -3 18 -8 42 -11 53
-2 11 18 -25 46 -79 27 -55 50 -108 50 -118z"/>
<path d="M3638 3843 c7 -3 16 -2 19 1 4 3 -2 6 -13 5 -11 0 -14 -3 -6 -6z"/>
<path d="M2938 3123 c-9 -10 -23 -24 -32 -30 -45 -38 -22 -129 43 -167 31 -18
35 -18 67 -3 38 19 74 70 74 105 0 28 -15 59 -43 90 -25 27 -85 30 -109 5z
m101 -42 c19 -12 6 -41 -17 -41 -23 0 -46 25 -37 40 8 12 35 13 54 1z"/>
<path d="M2594 1437 c-3 -8 -33 -37 -67 -64 -70 -54 -117 -102 -117 -119 0 -6
-7 -17 -15 -24 -8 -7 -15 -18 -15 -26 0 -7 35 22 78 64 71 72 157 132 187 132
16 0 39 27 28 33 -4 3 -23 8 -41 12 -24 5 -33 3 -38 -8z"/>
<path d="M2400 644 c-23 -25 -23 -27 -6 -40 23 -16 37 -10 29 13 -5 13 -2 15
11 10 26 -10 37 1 23 23 -16 26 -27 25 -57 -6z"/>
<path d="M2450 563 c0 -13 22 -33 37 -33 7 0 13 7 13 15 0 8 -4 15 -9 15 -5 0
-16 3 -25 6 -9 3 -16 2 -16 -3z"/>
<path d="M2540 500 c0 -5 5 -10 11 -10 5 0 7 5 4 10 -3 6 -8 10 -11 10 -2 0
-4 -4 -4 -10z"/>
<path d="M2569 393 c-13 -17 -13 -17 6 -3 11 8 22 16 24 17 2 2 0 3 -6 3 -6 0
-17 -8 -24 -17z"/>
</g>
</svg>
